HIERARCHY
ROOT Hips
{
	OFFSET 0.000000 0.000000 0.000000
	CHANNELS 6 Xposition Yposition Zposition Xrotation Yrotation Zrotation
	JOINT LeftUpLeg_virtual
	{
		OFFSET 0.000000 0.000000 0.000000
		CHANNELS 3 Xrotation Yrotation Zrotation
		JOINT LeftUpLeg
		{
			OFFSET 10.205400 -3.823500 0.155100
			CHANNELS 3 Xrotation Yrotation Zrotation
			JOINT LeftLeg
			{
				OFFSET 0.708757 -12.982077 0.567790
				CHANNELS 3 Xrotation Yrotation Zrotation
				JOINT LeftFoot
				{
					OFFSET -0.708756 -10.717838 -2.184338
					CHANNELS 3 Xrotation Yrotation Zrotation
					JOINT LeftToeBase
					{
						OFFSET 0.108149 -7.191104 7.560241
						CHANNELS 3 Xrotation Yrotation Zrotation
						JOINT LeftToe_End
						{
							OFFSET 0.070230 0.081724 4.490308
							CHANNELS 3 Xrotation Yrotation Zrotation
							End Site
							{
								OFFSET 0 0 0
							}
						}
					}
				}
			}
		}
	}
	JOINT RightUpLeg_virtual
	{
		OFFSET 0.000000 0.000000 0.000000
		CHANNELS 3 Xrotation Yrotation Zrotation
		JOINT RightUpLeg
		{
			OFFSET -10.205400 -3.823500 0.005500
			CHANNELS 3 Xrotation Yrotation Zrotation
			JOINT RightLeg
			{
				OFFSET -0.708756 -12.982134 0.610632
				CHANNELS 3 Xrotation Yrotation Zrotation
				JOINT RightFoot
				{
					OFFSET 0.708754 -10.717769 -1.945823
					CHANNELS 3 Xrotation Yrotation Zrotation
					JOINT RightToeBase
					{
						OFFSET -0.108140 -7.191069 7.372968
						CHANNELS 3 Xrotation Yrotation Zrotation
						JOINT RightToe_End
						{
							OFFSET -0.070227 0.081735 4.479403
							CHANNELS 3 Xrotation Yrotation Zrotation
							End Site
							{
								OFFSET 0 0 0
							}
						}
					}
				}
			}
		}
	}
	JOINT Spine_virtual
	{
		OFFSET 0.000000 0.000000 0.000000
		CHANNELS 3 Xrotation Yrotation Zrotation
		JOINT Spine
		{
			OFFSET 0.000000 6.876099 0.125700
			CHANNELS 3 Xrotation Yrotation Zrotation
			JOINT Spine1
			{
				OFFSET 0.000000 5.730043 0.104720
				CHANNELS 3 Xrotation Yrotation Zrotation
				JOINT Spine1_split
				{
					OFFSET 0.000000 5.730043 0.104720
					CHANNELS 3 Xrotation Yrotation Zrotation
					JOINT Spine2
					{
						OFFSET 0.000000 5.730043 0.104720
						CHANNELS 3 Xrotation Yrotation Zrotation
						JOINT Neck_virtual
						{
							OFFSET 0.000000 0.000000 0.000000
							CHANNELS 3 Xrotation Yrotation Zrotation
							JOINT Neck
							{
								OFFSET 0.000000 10.314075 0.188496
								CHANNELS 3 Xrotation Yrotation Zrotation
								JOINT Head
								{
									OFFSET 0.000000 7.643700 -2.377400
									CHANNELS 3 Xrotation Yrotation Zrotation
									JOINT HeadTop_End
									{
										OFFSET 0.000000 43.788605 -13.619600
										CHANNELS 3 Xrotation Yrotation Zrotation
										End Site
										{
											OFFSET 0 0 0
										}
									}
								}
							}
						}
						JOINT LeftShoulder_virtual
						{
							OFFSET 0.000000 0.000000 0.000000
							CHANNELS 3 Xrotation Yrotation Zrotation
							JOINT LeftShoulder
							{
								OFFSET 2.196100 4.412489 0.087492
								CHANNELS 3 Xrotation Yrotation Zrotation
								JOINT LeftShoulder_split
								{
									OFFSET 2.196100 4.412489 0.087492
									CHANNELS 3 Xrotation Yrotation Zrotation
									JOINT LeftArm
									{
										OFFSET 8.771219 -2.981674 -0.026999
										CHANNELS 3 Xrotation Yrotation Zrotation
										JOINT LeftForeArm
										{
											OFFSET 8.512804 0.000000 -0.000000
											CHANNELS 3 Xrotation Yrotation Zrotation
											JOINT LeftHand
											{
												OFFSET 18.484802 0.000000 -0.000000
												CHANNELS 3 Xrotation Yrotation Zrotation
												End Site
												{
													OFFSET 0 0 0
												}
											}
										}
									}
								}
							}
						}
						JOINT RightShoulder_virtual
						{
							OFFSET 0.000000 0.000000 0.000000
							CHANNELS 3 Xrotation Yrotation Zrotation
							JOINT RightShoulder
							{
								OFFSET -2.196100 4.412496 0.070690
								CHANNELS 3 Xrotation Yrotation Zrotation
								JOINT RightShoulder_split
								{
									OFFSET -2.196100 4.412496 0.070690
									CHANNELS 3 Xrotation Yrotation Zrotation
									JOINT RightArm
									{
										OFFSET -8.771282 -2.981682 -0.094208
										CHANNELS 3 Xrotation Yrotation Zrotation
										JOINT RightForeArm
										{
											OFFSET -8.494598 0.000000 0.000000
											CHANNELS 3 Xrotation Yrotation Zrotation
											JOINT RightHand
											{
												OFFSET -18.483803 0.000000 0.000001
												CHANNELS 3 Xrotation Yrotation Zrotation
												End Site
												{
													OFFSET 0 0 0
												}
											}
										}
									}
								}
							}
						}
					}
				}
			}
		}
	}
}
MOTION
Frames: 9
Frame Time: 0.03333333
22.348734 26.578156 89.972076 0.000000 0.000000 0.000000 0.000075 23.638429 -13.802071 -40.045389 6.569418 -3.712051 95.024481 2.113041 -5.025155 33.323800 11.362266 20.969179 -27.923191 -1.258215 -9.681443 0.000000 0.000000 0.000000 3.112151 22.585359 -14.098251 -42.669127 11.228741 3.869139 38.032952 10.610982 0.116203 -10.199128 5.423256 14.207615 -5.005964 -1.281060 0.613423 0.000000 0.000000 0.000000 2.152336 24.668601 -13.635373 3.393788 -8.618945 -2.158084 2.655137 -2.815253 1.360157 -0.215794 -0.101120 0.008673 0.000000 0.000000 0.000000 2.496337 -4.163939 2.320377 -0.848316 3.383392 0.942747 -10.830696 34.213490 5.620574 0.000000 0.000000 0.000000 1.657019 -3.245276 1.732116 -0.491048 0.257623 -9.705237 1.759850 4.080532 0.590033 16.027157 -13.492591 -46.470848 44.132567 -86.259374 40.448479 0.000000 0.000000 0.000000 2.637288 -3.854521 1.740534 0.784561 -5.833202 7.829222 2.227513 7.618793 -0.867788 37.214385 12.735501 49.665171 179.172555 83.832512 178.204649 0.000000 0.000000 0.000000 
24.258600 26.104235 94.616760 0.000000 0.000000 0.000000 -2.786487 22.784679 -13.339762 -54.605102 7.097718 -1.568618 103.045322 3.771847 -3.746589 25.122867 10.316223 24.166002 -32.989814 -1.426192 -8.399585 0.000000 0.000000 0.000000 1.954348 25.027635 -14.467287 -35.076109 8.207313 3.041949 48.237753 8.318493 1.978355 -23.566641 4.410987 7.178310 -5.943880 -1.685615 1.899433 0.000000 0.000000 0.000000 -1.702684 25.607993 -13.182709 5.934587 -5.696333 -1.835073 3.336245 -1.101738 1.497432 -0.398944 0.438757 -0.012786 0.000000 0.000000 0.000000 3.121622 -2.561816 2.466581 -1.767087 3.142875 1.175358 -10.225763 31.913174 5.261284 0.000000 0.000000 0.000000 2.692582 -1.541394 1.500448 -0.296447 0.630557 -10.172120 1.031459 2.511829 -1.280874 26.733927 -15.761684 -51.306704 14.531798 -72.699700 10.665872 0.000000 0.000000 0.000000 3.609163 -1.979104 1.727336 0.378977 -4.324826 10.602049 2.202566 6.521932 0.530040 23.424533 19.387249 50.910396 -162.047590 88.444557 158.943256 0.000000 0.000000 0.000000 
25.673529 25.907356 98.454376 0.000000 0.000000 0.000000 -4.677291 23.096741 -12.868163 -65.875378 7.412312 0.016503 105.966423 4.801839 -1.890476 14.150555 7.796482 27.977855 -41.304667 -2.771684 -3.971628 0.000000 0.000000 0.000000 0.702003 28.020057 -14.337733 -30.391429 6.210709 1.915276 58.376186 7.463840 3.736348 -32.615209 4.720706 3.368588 -6.804124 -2.181414 3.196777 0.000000 0.000000 0.000000 -5.131436 26.812959 -12.587059 8.025864 -2.846492 -1.507284 4.093915 0.422984 1.540618 0.237020 1.120956 0.101508 0.000000 0.000000 0.000000 3.912401 -0.976146 2.450760 -2.080842 2.899516 1.298174 -9.651773 29.432501 5.100207 0.000000 0.000000 0.000000 3.667583 0.036542 1.417502 -0.162894 1.137254 -9.272937 -0.010712 1.095659 -2.358469 33.778321 -17.785929 -55.233575 10.723838 -63.266601 7.626738 0.000000 0.000000 0.000000 4.617072 -0.293377 1.600450 -0.079259 -3.659577 12.204637 2.613856 4.904435 0.975300 8.773101 23.294077 53.807141 -144.582264 88.675144 141.732518 0.000000 0.000000 0.000000 
26.666254 25.808537 101.166267 0.000000 0.000000 0.000000 -5.246128 23.593232 -12.695365 -73.521823 6.852449 1.420746 104.896317 5.131236 -0.525087 6.396095 6.112401 31.567318 -46.139615 -4.456464 0.424946 0.000000 0.000000 0.000000 -0.761296 30.726921 -14.065970 -27.443417 5.243651 0.226192 64.816467 8.547296 4.773515 -36.215128 5.149261 4.051392 -8.279532 -2.702715 3.733954 0.000000 0.000000 0.000000 -7.289437 27.925416 -12.287845 9.327367 -0.504879 -1.101293 4.813517 1.466876 1.489951 0.858786 1.922703 0.234974 0.000000 0.000000 0.000000 4.749740 0.284197 2.297477 -1.929974 2.578118 1.443783 -9.473731 27.375752 5.151341 0.000000 0.000000 0.000000 4.395818 1.272900 1.475023 -0.113722 1.582884 -7.600037 -0.836200 -0.071006 -1.876956 37.339558 -18.089008 -58.200868 7.992915 -60.485013 6.347327 0.000000 0.000000 0.000000 5.414018 0.910134 1.410024 -0.352658 -3.672721 12.425216 3.167722 3.362857 0.938985 -2.493715 24.200689 56.320046 -164.740693 86.871878 162.785825 0.000000 0.000000 0.000000 
27.347574 25.699654 103.100243 0.000000 0.000000 0.000000 -4.552893 24.435188 -13.141784 -78.182689 5.918367 3.286384 101.759662 5.590709 -0.816728 2.831522 7.132888 36.087175 -43.744203 -4.905776 2.746966 0.000000 0.000000 0.000000 -1.613890 32.017789 -14.155557 -25.288977 4.877091 -1.591493 67.320523 10.556522 4.879624 -36.436286 4.938144 7.360868 -7.955984 -2.996406 3.178430 0.000000 0.000000 0.000000 -8.181289 28.262607 -12.476636 9.736689 1.142509 -0.389276 5.365023 1.913245 1.405658 1.045449 2.172199 0.230627 0.000000 0.000000 0.000000 5.443494 1.020414 2.112966 -1.704750 2.236165 1.669747 -10.071735 26.200490 5.422862 0.000000 0.000000 0.000000 4.849552 1.924601 1.582487 -0.132558 1.818192 -5.805262 -1.078504 -0.686460 -1.157430 38.132731 -17.211938 -60.147957 4.915453 -62.655620 4.795436 0.000000 0.000000 0.000000 5.968394 1.532509 1.221902 -0.367442 -3.893637 11.682867 3.946174 2.709134 0.518717 -8.337572 22.831968 57.631736 -171.016285 85.214226 170.139766 0.000000 0.000000 0.000000 
27.771551 25.454821 103.838562 0.000000 0.000000 0.000000 -3.201471 24.731651 -14.164373 -80.375078 4.481024 5.010581 98.779890 5.987403 -1.619279 4.110079 10.320482 37.924021 -36.939087 -3.655080 2.546515 0.000000 0.000000 0.000000 -1.923095 31.358744 -14.820255 -23.645809 4.549563 -2.864349 67.309513 12.656564 4.668080 -36.253657 4.084877 11.182711 -4.235640 -2.819983 1.639054 0.000000 0.000000 0.000000 -8.120630 27.626163 -13.189196 9.639686 2.216795 0.676797 5.744648 1.842088 1.310024 1.779011 2.450610 0.305345 0.000000 0.000000 0.000000 5.775797 1.175756 1.948202 -1.586928 1.855528 2.079220 -11.493837 25.942314 5.852022 0.000000 0.000000 0.000000 5.123566 1.962445 1.606492 -0.138121 1.713168 -4.773819 -1.729154 -0.624953 -0.780380 37.927183 -15.799232 -61.427545 0.499501 -66.332434 1.680995 0.000000 0.000000 0.000000 6.290960 1.607905 1.092184 -0.155922 -3.914869 10.430635 4.296240 2.608456 0.268529 -9.461662 20.586142 57.936806 -172.328214 85.117694 172.358335 0.000000 0.000000 0.000000 
28.044466 25.086105 103.857124 0.000000 0.000000 0.000000 -2.131568 24.849205 -15.581955 -80.203121 3.265764 6.429451 96.245644 5.504877 -1.930040 9.455248 12.890927 35.606377 -34.137808 -2.252856 2.007238 0.000000 0.000000 0.000000 -2.310887 29.564457 -15.870173 -22.460097 3.980212 -3.471096 67.205653 14.576361 4.336666 -36.287214 3.016877 14.109287 0.882447 -2.224190 -0.625194 0.000000 0.000000 0.000000 -7.381500 26.318990 -14.206191 9.129356 2.780314 1.967560 6.027259 1.453969 1.246844 1.929073 2.621295 0.123122 0.000000 0.000000 0.000000 5.767331 0.868000 1.842760 -1.584459 1.505022 2.577608 -13.298726 26.506028 6.208577 0.000000 0.000000 0.000000 5.413519 1.542374 1.507157 -0.146602 1.277504 -4.683297 -2.657487 0.252489 -1.316949 37.935933 -14.602731 -62.085866 -3.907663 -68.633784 -2.014964 0.000000 0.000000 0.000000 6.438993 1.339569 1.074470 0.175876 -3.521292 9.284378 3.566445 2.884297 0.505102 -7.755950 18.816763 57.555170 -169.946335 86.492502 170.339454 0.000000 0.000000 0.000000 
28.248272 24.843243 103.525352 0.000000 0.000000 0.000000 -2.009617 24.875124 -16.860008 -78.448971 2.680623 7.684968 94.534825 3.959081 -1.006061 17.052771 12.225815 30.476314 -39.475546 -1.688702 2.568760 0.000000 0.000000 0.000000 -2.963197 27.135515 -16.740104 -21.943081 3.314597 -2.917698 67.884588 15.996417 3.501400 -36.009683 1.726010 16.200321 4.090115 -1.355681 -2.936874 0.000000 0.000000 0.000000 -6.465300 24.536326 -15.231206 8.372381 2.961922 3.211463 6.172964 1.013268 1.245121 1.874273 2.483502 -0.241091 0.000000 0.000000 0.000000 5.595770 0.367922 1.796956 -1.570169 1.222859 2.934294 -14.919759 27.324090 6.320921 0.000000 0.000000 0.000000 5.783352 0.937000 1.389451 -0.140996 0.775693 -5.085852 -3.832974 1.583999 -2.911027 38.331076 -14.543498 -62.250344 -5.809747 -69.008762 -3.730846 0.000000 0.000000 0.000000 6.538661 0.963282 1.149089 0.430235 -2.686063 8.741225 2.256426 3.005465 1.026363 -5.329501 17.988338 56.811601 -166.061529 87.816630 166.273292 0.000000 0.000000 0.000000 
28.313135 24.758188 102.973450 0.000000 0.000000 0.000000 -2.562880 25.040773 -17.632253 -76.187605 2.876783 8.077990 94.387361 1.577407 1.360059 23.868357 8.046298 25.709273 -48.568488 -2.047927 3.690448 0.000000 0.000000 0.000000 -3.812087 25.339288 -17.073248 -21.856180 3.103324 -1.498998 68.184494 16.953508 2.148316 -34.935762 0.481309 17.454186 3.658027 -0.306714 -4.459443 0.000000 0.000000 0.000000 -5.730212 22.755762 -16.181529 7.540521 2.891895 4.135467 6.233852 0.731678 1.273813 1.448507 2.523240 -0.534282 0.000000 0.000000 0.000000 5.463993 -0.033738 1.752085 -1.408468 1.020288 2.981399 -15.789516 27.890676 6.061821 0.000000 0.000000 0.000000 6.149714 0.469028 1.328428 -0.145457 0.355965 -5.544181 -4.970922 2.607626 -3.754602 38.891562 -15.537371 -62.143629 -4.710741 -68.348644 -2.708777 0.000000 0.000000 0.000000 6.592511 0.666595 1.262503 0.561833 -1.558151 8.882571 0.941032 2.632771 1.337572 -3.467093 18.351199 55.733661 -169.501581 88.039158 169.185807 0.000000 0.000000 0.000000 
